PathFileType	4	(X/Y/Z)	C:\Users\°ÂÌØÂü\Desktop\20210112\bx_y_5_902-Unnamed.trc
DataRate	CameraRate	NumFrames	NumMarkers	Units	OrigDataRate	OrigDataStartFrame	OrigNumFrames
50.00	50.00	       4	0	mm	50.00	263	       525
Frame#	Time	
		

263	5.240	-758.36755	113.00473	1850.80896	-735.88104	291.69711	1541.70483	-714.98303	274.90091	751.70801	-833.53217	103.80311	1035.93176	-668.01825	281.82797	880.38605	-716.94769	73.70918	219.42467	-742.14807	253.76624	640.12427	-745.91949	248.86137	576.88159	-692.26575	206.50664	536.12494	-785.72894	258.76404	502.84174	-518.15338	-72.80650	142.64679				-603.92676	16.96490	169.60789	-675.50287	174.68594	159.02390	-771.84631	225.64568	203.61980	-595.16309	224.41135	174.08302	-882.42041	296.06781	144.68286	-561.49603	260.97623	165.89493	-665.98090	299.83185	159.45058	-628.49146	307.74069	161.76236	-528.18750	303.98975	146.51332	-712.16089	155.41090	218.51462	-652.58521	105.21801	1433.03137	-771.13190	-8.29118	206.01077	-794.41711	53.73311	173.42419	-796.94672	175.00092	182.86798	-786.05658	-34.35526	489.46423	-666.42120	-70.42372	160.02124	-876.03497	-78.80706	141.24240	-713.29352	-48.63287	711.90082	-621.79187	-6.68912	811.59027	-710.45288	145.48755	577.33521	-740.44684	-25.49521	570.39447	-561.61432	-40.55953	163.54019	-733.36682	-68.48747	1544.71155	-624.63293	-80.09909	158.43738	-687.63403	14.75385	525.00525	-613.81732	214.55988	828.58020	-727.14465	-30.08634	620.15802	-711.11487	78.23946	578.67566										-675.17584	52.64449	162.58171	
264	5.260	-762.51105	112.96078	1850.48242	-738.12115	291.59097	1541.62830	-713.40643	274.43903	751.45959	-832.29327	103.94923	1035.70654	-666.60980	281.26422	879.92029	-716.78497	73.71339	219.59274	-741.10730	253.69586	639.89722	-744.54346	248.73825	576.88892	-691.47809	206.23360	536.04492	-784.66565	258.98477	502.66815	-518.08093	-72.97990	142.85544				-603.92676	16.96490	169.60789	-675.52173	174.59860	158.94244	-771.59375	225.60640	203.93079	-595.19208	224.28648	174.17325	-882.50702	296.02576	144.51955	-561.32770	261.00745	165.44017	-665.84979	299.76114	159.58704	-628.51312	307.71576	161.55487	-528.29620	303.98795	146.49805	-712.19434	155.35019	218.43607	-653.49548	105.45692	1433.71558	-771.15240	-8.31166	205.94971	-794.40015	53.66157	173.38266	-797.36377	174.77377	183.31390	-784.69751	-34.05861	489.14490	-666.29846	-70.30024	160.04410	-875.97748	-78.88188	141.21204	-711.25842	-48.19087	712.32770	-620.04980	-6.20967	811.37067	-708.87213	145.45934	577.53448	-739.39105	-25.99698	570.41138	-561.77118	-40.63008	163.41093	-734.97064	-68.27066	1544.54785	-624.57135	-79.99234	158.25507	-686.93909	14.96858	525.23462	-612.44745	214.60567	828.56659	-725.64099	-30.07105	620.38318	-709.99438	78.47063	579.00732										-675.27509	52.54814	162.49828	
265	5.280	-766.38751	113.19511	1850.12366	-740.19489	291.77771	1541.44629	-711.91846	274.51169	751.20325	-830.38745	103.84856	1035.33667	-665.22760	281.79724	880.19879	-716.75037	73.78822	219.59286	-739.46436	253.59918	639.86505	-743.55396	248.49402	576.46777	-690.16882	206.36661	535.97729	-783.73450	258.94592	502.70016	-518.01538	-72.84333	142.92278	-709.06769	-49.57659	713.07892	-603.92676	16.96490	169.60789	-675.42651	174.71640	158.90097	-771.51184	225.59380	203.98940	-594.94489	224.30261	174.21935	-882.60645	295.97079	144.50911	-561.21588	261.24454	165.45430	-666.02905	299.79446	159.36018	-628.50037	307.63538	161.65199	-528.31757	303.94370	146.32027	-712.16089	155.41090	218.51462	-654.38989	105.73119	1433.89392	-771.08429	-8.27894	206.06982	-794.13757	53.98382	173.12994	-796.94116	174.91991	182.94557	-784.06720	-34.01445	489.10068	-666.39655	-70.24412	160.30377	-875.97748	-78.88188	141.21204				-618.38257	-5.69393	811.02063	-707.81055	145.17694	577.79547	-738.04565	-25.79084	570.14764	-561.80811	-40.58718	163.45145	-736.45142	-67.92392	1544.36304	-624.71545	-79.86428	158.35901	-686.03937	15.29039	525.32562	-611.05652	214.51024	828.29962	-724.66241	-29.84252	619.84064	-709.03217	78.35949	579.19635										-675.16663	52.72829	162.54951	
266	5.300	-769.37378	113.20814	1849.66724	-741.94202	291.84097	1541.21509	-710.93555	274.62186	751.68835	-828.81085	103.79994	1035.12976	-664.10754	282.21680	879.91528	-716.80646	73.98764	219.60439	-738.59210	253.63461	640.06439	-742.93494	248.83675	576.81018	-689.29083	206.42099	536.02167	-783.26501	258.67905	502.86838	-518.05609	-72.76517	142.81938	-707.65997	-48.09530	712.35199	-604.03583	17.13980	169.29625	-675.42651	174.71640	158.90097	-771.47375	225.40964	203.94682	-595.14587	224.20934	174.24742	-882.74103	296.24265	144.66035	-561.20343	261.42209	165.36044	-665.98090	299.83185	159.45058	-628.51312	307.71576	161.55487	-528.12610	304.05841	146.38554	-711.91302	155.23959	218.17876	-655.55017	106.04548	1433.77075	-770.98889	-8.14935	206.10378	-794.19781	53.71734	173.38263	-796.84387	174.92357	182.99652	-783.73602	-34.20097	489.56174	-666.30878	-70.31968	160.08737	-875.97589	-78.81084	141.28232				-617.11041	-5.23885	811.28516	-707.10400	145.34186	577.68762	-737.21167	-25.94009	570.15369	-561.73352	-40.55663	163.20709	-737.82379	-67.84433	1544.32703	-624.72247	-79.72112	158.22021	-685.38855	15.16121	525.30029	-609.64752	214.90347	828.98340	-722.89423	-29.93335	619.62396	-707.91534	78.86820	579.08203										-675.19751	52.76004	162.44449	
